<svg width="111" height="43" viewBox="0 0 111 43" fill="none" xmlns="http://www.w3.org/2000/svg">
<g clip-path="url(#clip0_87_466)">
<path d="M0 0.00976562H111V42.9904H0V0.00976562Z" fill="#005CFF"/>
<path d="M13.111 13.562H16.6945V29.0539H13.111V13.562Z" fill="white"/>
<path d="M16.5612 13.562H21.2438V16.3154H16.5612V13.562ZM16.5612 26.3014H21.2438V29.0548H16.5612V26.3014ZM16.5612 19.773H21.2438V22.1607H16.5612V19.773Z" fill="white"/>
<path d="M21.2438 29.0548C21.2438 29.0548 26.2087 29.2098 26.2087 24.4816C26.2087 24.4816 26.4252 20.6347 23.2821 20.6347C23.2821 20.6347 25.667 20.4593 25.667 17.6872C25.667 14.915 23.7159 13.562 21.2446 13.562C18.7732 13.562 18.9033 14.9387 18.9033 14.9387L20.6592 16.3154H21.2446C21.2446 16.3154 22.3502 16.3154 22.3502 17.9271C22.3502 19.5388 21.6998 19.7722 20.963 19.7722C20.2262 19.7722 19.9438 20.966 19.9438 20.966L21.2446 22.1599C21.2446 22.1599 22.8919 22.1387 22.8919 24.2874C22.8919 26.436 21.1573 26.2998 20.7243 26.2998C20.2913 26.2998 20.4205 27.4039 20.4205 27.4039L21.2438 29.0548ZM32.83 17.5035C26.8196 17.5035 26.8253 23.4558 26.8253 23.4558C26.8253 23.4558 26.4129 29.3779 32.83 29.3779C32.83 29.3779 38.1778 29.6807 38.1778 25.2585H35.4274C35.4274 25.2585 35.5187 26.924 32.9214 26.924C32.9214 26.924 30.171 27.106 30.171 24.2286H38.2692C38.27 24.2286 39.1558 17.5035 32.83 17.5035ZM30.1405 22.1607C30.1405 22.1607 30.4764 19.773 32.891 19.773C35.3055 19.773 35.2742 22.1607 35.2742 22.1607H30.1405ZM92.4063 17.5035C86.3958 17.5035 86.4016 23.4558 86.4016 23.4558C86.4016 23.4558 85.9892 29.3779 92.4071 29.3779C92.4071 29.3779 97.7549 29.6807 97.7549 25.2585H95.0045C95.0045 25.2585 95.0958 26.924 92.4985 26.924C92.4985 26.924 89.7481 27.106 89.7481 24.2286H97.8471C97.8455 24.2286 98.7313 17.5035 92.4063 17.5035ZM89.7168 22.1607C89.7168 22.1607 90.0527 19.773 92.4672 19.773C94.881 19.773 94.8505 22.1607 94.8505 22.1607H89.7168ZM29.4679 14.4744H35.9164V16.3823H29.4679V14.4744ZM39.4917 13.562H42.6694V29.0466H39.4917V13.562ZM49.9732 21.1692H46.8564V29.0466H49.9732V21.1692Z" fill="white"/>
<path d="M46.816 21.1691C46.816 21.1691 46.816 19.9875 44.8386 19.9875C43.0053 19.9875 42.6694 21.4115 42.6694 22.7743C42.6694 24.1371 42.4553 19.7753 42.4553 19.7753C42.4553 19.7753 43.4638 17.5034 46.1533 17.5034C48.8428 17.5034 49.9732 19.4301 49.9732 21.3225C49.9732 23.215 48.8922 22.301 48.8922 22.301L46.8169 21.813V21.1683L46.816 21.1691ZM63.122 17.6691H66.2997V29.0465H63.122V17.6691ZM73.6043 21.1691H70.4875V29.0465H73.6043V21.1691Z" fill="white"/>
<path d="M70.4473 21.1691C70.4473 21.1691 70.4473 19.9875 68.4698 19.9875C66.6365 19.9875 66.3006 21.4115 66.3006 22.7743C66.3006 24.1371 66.0866 19.7753 66.0866 19.7753C66.0866 19.7753 67.095 17.5034 69.7846 17.5034C72.4733 17.5034 73.6044 19.4301 73.6044 21.3225C73.6044 23.215 72.5235 22.301 72.5235 22.301L70.4473 21.813V21.1691ZM62.0584 29.0465C62.0584 29.0465 61.4674 28.7453 61.4674 26.906V20.2715C61.4674 20.2715 61.8436 17.5042 56.8136 17.5042C51.7844 17.5042 51.4617 20.003 51.4345 21.4955H54.7966C54.7966 21.4955 54.6624 19.5215 56.7872 19.5215C56.7872 19.5215 58.5893 19.3795 58.5893 21.1699C58.5893 21.1699 58.5893 22.3467 56.9486 22.4536C55.3079 22.5605 51.139 22.5344 51.139 25.8932C51.139 25.8932 51.0311 29.439 54.8641 29.439C54.8641 29.439 57.487 29.492 58.5893 27.8926V29.0465H62.0584ZM58.5621 25.5464C58.5621 25.5464 58.2929 27.2528 56.0068 27.2528C56.0068 27.2528 54.124 27.3336 54.124 25.7333C54.124 25.7333 53.9627 24.5068 56.5987 24.1069C57.6475 24.0269 58.1316 23.9551 58.5621 23.4712V25.5464ZM85.9028 24.6618H82.6131C82.6131 24.6618 82.6938 26.9566 80.5418 26.9566C78.3891 26.9566 77.821 24.67 77.821 23.3586C77.821 22.0456 78.2672 19.8316 80.5822 19.8316C82.8971 19.8316 82.8156 21.804 82.8156 21.804H85.6994C85.6994 21.804 85.902 17.5042 80.6233 17.5042C75.3439 17.5042 74.7759 21.742 74.7759 23.4435C74.7759 25.1449 75.6691 29.439 80.5427 29.439C85.4154 29.4382 85.9028 25.5472 85.9028 24.6618Z" fill="white"/>
</g>
<defs>
<clipPath id="clip0_87_466">
<rect width="111" height="43" fill="white"/>
</clipPath>
</defs>
</svg>
