<svg width="24" height="25" viewBox="0 0 24 25" fill="none" xmlns="http://www.w3.org/2000/svg">
<path d="M11.9893 0.828187C5.36518 0.825508 0 6.18801 0 12.8068C0 18.0407 3.35625 22.4898 8.03036 24.1237C8.65982 24.2818 8.56339 23.8344 8.56339 23.5291V21.4532C4.92857 21.8791 4.78125 19.4737 4.5375 19.0719C4.04464 18.2309 2.87946 18.0166 3.22768 17.6148C4.05536 17.1889 4.89911 17.7219 5.87679 19.1657C6.58393 20.213 7.96339 20.0362 8.6625 19.8621C8.81518 19.2327 9.14196 18.6702 9.59196 18.2335C5.82589 17.5585 4.25625 15.2603 4.25625 12.5282C4.25625 11.2023 4.69286 9.98355 5.55 9.00051C5.00357 7.37997 5.60089 5.99247 5.68125 5.78622C7.2375 5.64694 8.85536 6.90051 8.98125 6.99962C9.86518 6.76122 10.875 6.63533 12.0054 6.63533C13.1411 6.63533 14.1536 6.76658 15.0455 7.00765C15.3482 6.77729 16.8482 5.70051 18.2946 5.83176C18.3723 6.03801 18.9563 7.39337 18.442 8.99247C19.3098 9.97819 19.7518 11.2077 19.7518 12.5362C19.7518 15.2737 18.1714 17.5746 14.3946 18.2389C14.7181 18.557 14.975 18.9364 15.1502 19.3549C15.3254 19.7735 15.4155 20.2227 15.4152 20.6764V23.6898C15.4366 23.9309 15.4152 24.1693 15.817 24.1693C20.5607 22.5702 23.9759 18.0889 23.9759 12.8094C23.9759 6.18801 18.608 0.828187 11.9893 0.828187Z" fill="#9DA4BA"/>
</svg>
