<svg width="20" height="19" viewBox="0 0 20 19" fill="none" xmlns="http://www.w3.org/2000/svg">
<path d="M10.0001 6.37598C8.2798 6.37598 6.87589 7.77988 6.87589 9.5002C6.87589 11.2205 8.2798 12.6244 10.0001 12.6244C11.7204 12.6244 13.1243 11.2205 13.1243 9.5002C13.1243 7.77988 11.7204 6.37598 10.0001 6.37598ZM19.3704 9.5002C19.3704 8.20645 19.3821 6.92441 19.3095 5.63301C19.2368 4.13301 18.8946 2.80176 17.7978 1.70488C16.6985 0.605665 15.3696 0.265822 13.8696 0.193165C12.5759 0.120509 11.2939 0.132228 10.0025 0.132228C8.7087 0.132228 7.42667 0.120509 6.13527 0.193165C4.63527 0.265822 3.30402 0.608009 2.20714 1.70488C1.10792 2.8041 0.76808 4.13301 0.695424 5.63301C0.622767 6.92676 0.634486 8.20879 0.634486 9.5002C0.634486 10.7916 0.622767 12.076 0.695424 13.3674C0.76808 14.8674 1.11027 16.1986 2.20714 17.2955C3.30636 18.3947 4.63527 18.7346 6.13527 18.8072C7.42902 18.8799 8.71105 18.8682 10.0025 18.8682C11.2962 18.8682 12.5782 18.8799 13.8696 18.8072C15.3696 18.7346 16.7009 18.3924 17.7978 17.2955C18.897 16.1963 19.2368 14.8674 19.3095 13.3674C19.3845 12.076 19.3704 10.7939 19.3704 9.5002ZM10.0001 14.3072C7.33995 14.3072 5.19308 12.1604 5.19308 9.5002C5.19308 6.84004 7.33995 4.69316 10.0001 4.69316C12.6603 4.69316 14.8071 6.84004 14.8071 9.5002C14.8071 12.1604 12.6603 14.3072 10.0001 14.3072ZM15.004 5.61895C14.3829 5.61895 13.8814 5.11738 13.8814 4.49629C13.8814 3.8752 14.3829 3.37363 15.004 3.37363C15.6251 3.37363 16.1267 3.8752 16.1267 4.49629C16.1269 4.64377 16.0979 4.78984 16.0416 4.92613C15.9852 5.06242 15.9026 5.18626 15.7983 5.29054C15.694 5.39483 15.5701 5.47751 15.4339 5.53387C15.2976 5.59022 15.1515 5.61913 15.004 5.61895Z" fill="#9DA4BA"/>
</svg>
