<svg width="20" height="19" viewBox="0 0 20 19" fill="none" xmlns="http://www.w3.org/2000/svg">
<path d="M18.625 0.125H1.375C0.960156 0.125 0.625 0.460156 0.625 0.875V18.125C0.625 18.5398 0.960156 18.875 1.375 18.875H18.625C19.0398 18.875 19.375 18.5398 19.375 18.125V0.875C19.375 0.460156 19.0398 0.125 18.625 0.125ZM6.18672 16.1023H3.40469V7.15391H6.18672V16.1023ZM4.79688 5.93047C4.47795 5.93047 4.16619 5.8359 3.90102 5.65871C3.63584 5.48153 3.42917 5.22969 3.30712 4.93505C3.18507 4.6404 3.15314 4.31618 3.21536 4.00339C3.27758 3.69059 3.43115 3.40327 3.65667 3.17776C3.88218 2.95225 4.1695 2.79867 4.48229 2.73645C4.79509 2.67423 5.11931 2.70617 5.41395 2.82821C5.7086 2.95026 5.96044 3.15694 6.13762 3.42211C6.3148 3.68729 6.40937 3.99905 6.40937 4.31797C6.40703 5.20859 5.68516 5.93047 4.79688 5.93047ZM16.6023 16.1023H13.8227V11.75C13.8227 10.7117 13.8039 9.37812 12.3766 9.37812C10.9305 9.37812 10.7078 10.5078 10.7078 11.675V16.1023H7.93047V7.15391H10.5977V8.37734H10.6352C11.0055 7.67422 11.9125 6.93125 13.2672 6.93125C16.0844 6.93125 16.6023 8.78516 16.6023 11.1945V16.1023Z" fill="#9DA4BA"/>
</svg>
