<svg width="24" height="19" viewBox="0 0 24 19" fill="none" xmlns="http://www.w3.org/2000/svg">
<path d="M23.1424 2.59817C22.3228 2.95174 21.4308 3.20621 20.512 3.30531C21.4659 2.73862 22.1802 1.84335 22.521 0.787455C21.6259 1.31993 20.6453 1.6933 19.6228 1.89103C19.1954 1.43413 18.6785 1.07015 18.1043 0.821761C17.5301 0.573371 16.9109 0.445895 16.2853 0.447277C13.754 0.447277 11.7183 2.49906 11.7183 5.01692C11.7183 5.37049 11.7611 5.72406 11.8308 6.06424C8.04061 5.86603 4.66025 4.05531 2.41293 1.28299C2.00345 1.98241 1.78886 2.77877 1.7915 3.58924C1.7915 5.17495 2.59775 6.57317 3.82722 7.39549C3.10268 7.36696 2.3951 7.16781 1.76204 6.81424V6.87049C1.76204 9.09103 3.33168 10.9312 5.42365 11.3544C5.03086 11.4564 4.62679 11.5086 4.22097 11.5098C3.92365 11.5098 3.6424 11.4803 3.35847 11.4401C3.93704 13.2508 5.62186 14.566 7.62811 14.6089C6.05847 15.8383 4.0924 16.5616 1.95758 16.5616C1.57454 16.5616 1.22097 16.5482 0.854004 16.5053C2.879 17.8044 5.28168 18.5544 7.86918 18.5544C16.2692 18.5544 20.8656 11.5955 20.8656 5.55531C20.8656 5.3571 20.8656 5.15888 20.8522 4.96067C21.7415 4.30978 22.521 3.50353 23.1424 2.59817Z" fill="#9DA4BA"/>
</svg>
